<svg width="197" height="44" viewBox="0 0 197 44" fill="none" xmlns="http://www.w3.org/2000/svg">
<g clip-path="url(#clip0_1_574)">
<path d="M42.1882 18.5005C26.4616 18.4319 20.2805 26.1323 19.8508 26.1301C3.3258 26.0102 1 31.5 1 31.5C4.51925 30.2769 8.31344 29.6344 11.684 29.3088C16.0138 28.889 20.3742 28.9789 24.6918 29.5315C31.4737 30.4012 48.1148 31.8598 56.3752 26.6677C56.3752 26.6677 35.1538 29.6194 26.4697 26.0252C37.1599 20.0384 45.0945 22.1246 56.9312 25.3162C70.4543 28.9618 73 24.1681 73 24.1681C56.8884 23.4976 57.9149 18.569 42.1882 18.5005Z" fill="#FFC513"/>
<path d="M24.6824 34.9404C22.8626 34.7392 21.1498 33.9344 19.8652 32.6077C18.7267 31.4319 17.1436 30.7046 15.3937 30.7046C13.1024 30.7046 11.0973 31.9538 10 33.8191H14.6402C15.3402 33.8191 15.9104 34.3976 15.9104 35.1123V39.0944C15.9104 39.807 15.3423 40.3855 14.6402 40.3855H10C11.0973 42.2509 13.1024 43.5 15.3937 43.5C16.8327 43.5 18.1585 43.0075 19.2187 42.1796C20.771 40.964 22.6897 40.331 24.6454 40.4421C54.8214 42.1502 62 27.5 62 27.5C50.2656 36.33 33.333 35.8961 24.6824 34.9404Z" fill="#D90429"/>
<path d="M0 36.5C5.07992 35.2886 9 31.5 9 31.5L2.94467 33.1131C1.3709 33.5396 0.209016 34.8766 0 36.5Z" fill="#FFC513"/>
<path d="M24.7598 34.8035C22.9303 34.5991 21.2085 33.7814 19.9171 32.4335C18.7727 31.2389 17.1812 30.5 15.4221 30.5C13.1188 30.5 11.1031 31.7691 10 33.6643H14.6647C15.3683 33.6643 15.9416 34.252 15.9416 34.9781V39.024C15.9416 39.748 15.3704 40.3357 14.6647 40.3357H10C11.1031 42.2309 13.1188 43.5 15.4221 43.5C16.8687 43.5 18.2015 42.9996 19.2673 42.1585C20.8277 40.9234 22.7565 40.2803 24.7225 40.3932C24.7225 40.3932 42.7998 39.8097 54 31.8437C43.4848 35.9981 31.5706 35.5637 24.7598 34.8035Z" fill="#D90429"/>
<path d="M65.8637 28.3743C65.8637 28.3743 56.4479 41.0168 36 42.3603C36 42.3603 59.1319 44.9831 71 27.5C70.9979 27.5 69.1251 28.5327 65.8637 28.3743Z" fill="#FFC513"/>
<path d="M59 17.5153L56.7661 19.5963C55.8668 19.2882 52.0683 18.8209 46.2823 15.0716C43.3708 13.1855 39.9501 12.0202 36.244 12.0202C28.3288 12.0202 21.584 17.2428 19.0236 24.4207C17.8594 24.4396 16.7814 24.4857 15.7856 24.559C16.7999 21.6019 20.0564 14.3989 28.3391 11.7981C27.9839 11.8463 16.9868 13.4915 12.5621 24.9027C11.3856 25.0725 10.3651 25.2779 9.4781 25.5C9.48015 25.4895 9.48426 25.479 9.48631 25.4686C10.0037 23.3561 9.34669 21.1241 7.77186 19.6592L5 17.0772L7.86221 12.0181L12.7263 13.5941C14.0876 14.0363 15.5659 13.6654 16.5987 12.6594L16.6316 12.6259C17.6931 11.5969 18.0647 10.0251 17.6212 8.60001L16.5659 5.20702L21.2801 2.43017L23.8076 5.25731C24.8055 6.37644 26.3125 6.87522 27.758 6.55038C27.7744 6.54619 27.7909 6.542 27.8052 6.5399C29.4006 6.18153 30.6531 4.922 31.0021 3.29361L31.6058 0.5H36.1804L36.8374 3.55348C37.1988 5.23845 38.4266 6.58182 40.0405 7.09527C40.0589 7.10156 40.0754 7.10575 40.0938 7.11204C41.8186 7.66531 43.6993 7.12671 44.9169 5.76448L46.3788 4.13191L49.6948 6.08513L48.0234 11.4502C48.4361 11.7897 48.8386 12.1439 49.2307 12.5106C51.3722 14.5205 54.411 15.1953 57.1829 14.2962L59 17.5153Z" fill="#D90429"/>
<path d="M44.5529 5.76746C43.3464 7.12992 41.4827 7.66861 39.7736 7.11524C39.7553 7.10895 39.739 7.10476 39.7207 7.09847C38.1235 6.58493 36.9048 5.24134 36.5467 3.55609L35.8956 0.5H31.3625L30.7684 3.28779C30.4205 4.91645 29.1814 6.17829 27.6005 6.53463C27.5863 6.53672 27.57 6.54092 27.5537 6.54511C26.1213 6.8721 24.6279 6.37113 23.6391 5.25182L21.1325 2.4263L16.461 5.20361L17.5068 8.59717C17.9463 10.0225 17.578 11.5946 16.5261 12.6238L16.4935 12.6573C15.4701 13.6634 14.0052 14.0344 12.6563 13.5921L7.83625 12.0159L5 17.0758L7.74673 19.6582C9.30728 21.1234 9.95836 23.3578 9.44564 25.4686C9.4436 25.479 9.43953 25.4895 9.4375 25.5C10.3165 25.2778 11.3277 25.0724 12.4935 24.9026C16.8801 13.4873 27.7775 11.844 28.1275 11.7958C28.1275 11.7958 30.2618 10.2719 36.5386 10.4585C42.8154 10.645 46.0443 4.69427 45.9995 4.13251L44.5529 5.76746Z" fill="#D90429"/>
</g>
<path d="M90.6818 22.6763C90.6818 22.2247 90.6126 21.8195 90.474 21.4605C90.347 21.09 90.1046 20.7542 89.7468 20.4532C89.3889 20.1406 88.8867 19.8337 88.2403 19.5327C87.5938 19.2316 86.7569 18.919 85.7294 18.5948C84.5866 18.2243 83.5014 17.8075 82.474 17.3443C81.4582 16.8812 80.5577 16.3427 79.7727 15.7291C78.9993 15.1038 78.3874 14.3802 77.9372 13.5581C77.4986 12.736 77.2792 11.7807 77.2792 10.6923C77.2792 9.63867 77.5101 8.68343 77.9719 7.8266C78.4336 6.9582 79.0801 6.21716 79.9113 5.60349C80.7424 4.97824 81.7237 4.49772 82.855 4.16194C83.9978 3.82616 85.2504 3.65827 86.6126 3.65827C88.4711 3.65827 90.0931 3.99405 91.4784 4.66562C92.8636 5.33718 93.9372 6.25769 94.6991 7.42714C95.4726 8.59659 95.8593 9.93393 95.8593 11.4392H90.6991C90.6991 10.6981 90.5433 10.0497 90.2316 9.49394C89.9315 8.92658 89.4697 8.4808 88.8463 8.1566C88.2345 7.83239 87.461 7.67029 86.526 7.67029C85.6255 7.67029 84.8752 7.80924 84.2749 8.08713C83.6746 8.35344 83.2244 8.71817 82.9242 9.18131C82.6241 9.63288 82.474 10.1423 82.474 10.7097C82.474 11.1381 82.5779 11.526 82.7857 11.8734C83.0051 12.2207 83.3283 12.5449 83.7554 12.846C84.1825 13.147 84.7078 13.4307 85.3312 13.697C85.9545 13.9633 86.676 14.2238 87.4957 14.4786C88.8694 14.8954 90.0758 15.3643 91.1147 15.8854C92.1652 16.4064 93.0426 16.9912 93.7468 17.6396C94.4509 18.288 94.982 19.0232 95.3398 19.8453C95.6977 20.6674 95.8766 21.5995 95.8766 22.6416C95.8766 23.7415 95.6631 24.7257 95.2359 25.5941C94.8088 26.4625 94.1912 27.1978 93.3831 27.7999C92.575 28.402 91.6111 28.8593 90.4913 29.172C89.3716 29.4846 88.119 29.6409 86.7338 29.6409C85.487 29.6409 84.2576 29.4788 83.0455 29.1546C81.8333 28.8188 80.7309 28.3151 79.7381 27.6436C78.7569 26.972 77.9719 26.1152 77.3831 25.0731C76.7944 24.031 76.5 22.7979 76.5 21.3737H81.7121C81.7121 22.1611 81.8333 22.8268 82.0758 23.371C82.3182 23.9152 82.6587 24.3552 83.0974 24.691C83.5476 25.0268 84.0786 25.2699 84.6905 25.4205C85.3139 25.571 85.9949 25.6462 86.7338 25.6462C87.6342 25.6462 88.373 25.5189 88.9502 25.2641C89.539 25.0094 89.9719 24.6563 90.2489 24.2047C90.5375 23.7531 90.6818 23.2437 90.6818 22.6763Z" fill="white"/>
<path d="M110.682 4.00563V29.2935H105.504V4.00563H110.682ZM118.439 4.00563V8.08713H97.868V4.00563H118.439Z" fill="white"/>
<path d="M126.924 4.00563V29.2935H121.747V4.00563H126.924Z" fill="white"/>
<path d="M142.543 4.00563V29.2935H137.366V4.00563H142.543ZM150.301 4.00563V8.08713H129.729V4.00563H150.301Z" fill="white"/>
<path d="M167.392 20.9048H172.569C172.465 22.6068 171.998 24.1179 171.167 25.4378C170.347 26.7578 169.198 27.7883 167.721 28.5293C166.255 29.2704 164.488 29.6409 162.422 29.6409C160.806 29.6409 159.357 29.363 158.076 28.8072C156.794 28.2399 155.698 27.4294 154.786 26.3757C153.885 25.322 153.198 24.0484 152.725 22.5547C152.252 21.0611 152.015 19.3879 152.015 17.5354V15.7812C152.015 13.9286 152.258 12.2555 152.742 10.7618C153.239 9.25658 153.943 7.97713 154.855 6.92346C155.778 5.8698 156.881 5.05929 158.162 4.49194C159.444 3.92458 160.875 3.6409 162.457 3.6409C164.558 3.6409 166.33 4.023 167.773 4.78719C169.227 5.55139 170.353 6.60505 171.149 7.94818C171.957 9.29131 172.442 10.8197 172.604 12.5334H167.409C167.351 11.5144 167.149 10.6518 166.803 9.94551C166.457 9.22763 165.931 8.68922 165.227 8.33028C164.535 7.95976 163.611 7.7745 162.457 7.7745C161.591 7.7745 160.835 7.9366 160.188 8.26081C159.542 8.58501 158.999 9.07711 158.561 9.73709C158.122 10.3971 157.793 11.2307 157.574 12.2381C157.366 13.2339 157.262 14.4033 157.262 15.7464V17.5354C157.262 18.8438 157.36 19.9958 157.556 20.9916C157.753 21.9758 158.053 22.8095 158.457 23.4926C158.872 24.1642 159.403 24.6736 160.05 25.021C160.708 25.3568 161.499 25.5247 162.422 25.5247C163.507 25.5247 164.402 25.351 165.106 25.0036C165.81 24.6563 166.347 24.141 166.716 23.4579C167.097 22.7747 167.323 21.9237 167.392 20.9048Z" fill="white"/>
<path d="M192.794 14.3049V18.369H179.634V14.3049H192.794ZM181.175 4.00563V29.2935H175.981V4.00563H181.175ZM196.5 4.00563V29.2935H191.323V4.00563H196.5Z" fill="white"/>
<path d="M80.1453 39.0258H81.4162C81.3823 39.4809 81.2575 39.8846 81.0418 40.2369C80.8262 40.586 80.5258 40.8603 80.1407 41.0598C79.7556 41.2593 79.2888 41.3591 78.7404 41.3591C78.3183 41.3591 77.9379 41.2843 77.599 41.1347C77.2632 40.9819 76.9751 40.7652 76.7348 40.4847C76.4976 40.201 76.3158 39.8612 76.1895 39.4653C76.0632 39.0663 76 38.619 76 38.1233V37.6043C76 37.1086 76.0647 36.6613 76.1941 36.2622C76.3235 35.8632 76.5083 35.5234 76.7486 35.2429C76.992 34.9592 77.2832 34.741 77.6221 34.5882C77.964 34.4355 78.3461 34.3591 78.7682 34.3591C79.3165 34.3591 79.7802 34.462 80.1592 34.6677C80.5381 34.8703 80.8323 35.1493 81.0418 35.5047C81.2513 35.8601 81.3776 36.2685 81.4208 36.7298H80.1499C80.1253 36.443 80.0637 36.1999 79.9651 36.0004C79.8696 35.8009 79.7248 35.6497 79.5307 35.5468C79.3397 35.4408 79.0855 35.3878 78.7682 35.3878C78.5217 35.3878 78.3045 35.4346 78.1166 35.5281C77.9317 35.6216 77.7777 35.7619 77.6544 35.9489C77.5312 36.1329 77.4388 36.3636 77.3771 36.641C77.3155 36.9153 77.2847 37.2333 77.2847 37.5949V38.1233C77.2847 38.4693 77.3124 38.7795 77.3679 39.0538C77.4234 39.3281 77.5096 39.5604 77.6267 39.7506C77.7438 39.9407 77.8947 40.0857 78.0796 40.1854C78.2644 40.2852 78.4847 40.3351 78.7404 40.3351C79.0516 40.3351 79.3042 40.2852 79.4983 40.1854C79.6955 40.0857 79.8449 39.9391 79.9466 39.7459C80.0513 39.5526 80.1176 39.3126 80.1453 39.0258Z" fill="white"/>
<path d="M88.9566 35.4907L87.0388 41.2656H85.694L88.208 34.4573H89.0675L88.9566 35.4907ZM90.5602 41.2656L88.6331 35.4907L88.5176 34.4573H89.3818L91.9096 41.2656H90.5602ZM90.4724 38.7359V39.7506H86.8632V38.7359H90.4724Z" fill="white"/>
<path d="M96.4832 34.4573H98.9279C99.4393 34.4573 99.8783 34.5352 100.245 34.6911C100.612 34.847 100.893 35.0776 101.091 35.3831C101.288 35.6886 101.386 36.0643 101.386 36.5101C101.386 36.8623 101.325 37.1678 101.202 37.4266C101.078 37.6853 100.904 37.902 100.679 38.0765C100.458 38.2511 100.196 38.3883 99.8937 38.488L99.4963 38.6938H97.3382L97.3289 37.6791H98.9418C99.2036 37.6791 99.4208 37.6323 99.5934 37.5388C99.7659 37.4453 99.8953 37.3159 99.9815 37.1507C100.071 36.9855 100.116 36.7969 100.116 36.5849C100.116 36.3573 100.072 36.1609 99.9862 35.9957C99.8999 35.8274 99.769 35.698 99.5934 35.6076C99.4177 35.5172 99.1959 35.472 98.9279 35.472H97.7541V41.2656H96.4832V34.4573ZM100.282 41.2656L98.7246 38.2168L100.069 38.2121L101.645 41.2001V41.2656H100.282Z" fill="white"/>
<path d="M113.172 34.4573H114.272L116.112 39.5822L117.946 34.4573H119.051L116.551 41.2656H115.668L113.172 34.4573ZM112.618 34.4573H113.695L113.889 39.166V41.2656H112.618V34.4573ZM118.524 34.4573H119.605V41.2656H118.334V39.166L118.524 34.4573Z" fill="white"/>
<path d="M129.239 40.2556V41.2656H125.662V40.2556H129.239ZM126.05 34.4573V41.2656H124.78V34.4573H126.05ZM128.772 37.2676V38.2542H125.662V37.2676H128.772ZM129.225 34.4573V35.472H125.662V34.4573H129.225Z" fill="white"/>
<path d="M137.94 39.0258H139.21C139.176 39.4809 139.052 39.8846 138.836 40.2369C138.62 40.586 138.32 40.8603 137.935 41.0598C137.55 41.2593 137.083 41.3591 136.535 41.3591C136.113 41.3591 135.732 41.2843 135.393 41.1347C135.057 40.9819 134.769 40.7652 134.529 40.4847C134.292 40.201 134.11 39.8612 133.984 39.4653C133.857 39.0663 133.794 38.619 133.794 38.1233V37.6043C133.794 37.1086 133.859 36.6613 133.988 36.2622C134.118 35.8632 134.303 35.5234 134.543 35.2429C134.786 34.9592 135.077 34.741 135.416 34.5882C135.758 34.4355 136.14 34.3591 136.562 34.3591C137.111 34.3591 137.574 34.462 137.953 34.6677C138.332 34.8703 138.627 35.1493 138.836 35.5047C139.046 35.8601 139.172 36.2685 139.215 36.7298H137.944C137.92 36.443 137.858 36.1999 137.759 36.0004C137.664 35.8009 137.519 35.6497 137.325 35.5468C137.134 35.4408 136.88 35.3878 136.562 35.3878C136.316 35.3878 136.099 35.4346 135.911 35.5281C135.726 35.6216 135.572 35.7619 135.449 35.9489C135.325 36.1329 135.233 36.3636 135.171 36.641C135.11 36.9153 135.079 37.2333 135.079 37.5949V38.1233C135.079 38.4693 135.107 38.7795 135.162 39.0538C135.218 39.3281 135.304 39.5604 135.421 39.7506C135.538 39.9407 135.689 40.0857 135.874 40.1854C136.059 40.2852 136.279 40.3351 136.535 40.3351C136.846 40.3351 137.098 40.2852 137.293 40.1854C137.49 40.0857 137.639 39.9391 137.741 39.7459C137.846 39.5526 137.912 39.3126 137.94 39.0258Z" fill="white"/>
<path d="M148.539 37.2676V38.2776H144.999V37.2676H148.539ZM145.346 34.4573V41.2656H144.075V34.4573H145.346ZM149.482 34.4573V41.2656H148.211V34.4573H149.482Z" fill="white"/>
<path d="M157.415 35.4907L155.497 41.2656H154.153L156.667 34.4573H157.526L157.415 35.4907ZM159.019 41.2656L157.092 35.4907L156.976 34.4573H157.84L160.368 41.2656H159.019ZM158.931 38.7359V39.7506H155.322V38.7359H158.931Z" fill="white"/>
<path d="M170.349 34.4573V41.2656H169.073L166.213 36.5428V41.2656H164.942V34.4573H166.213L169.083 39.1848V34.4573H170.349Z" fill="white"/>
<path d="M176.877 34.4573V41.2656H175.606V34.4573H176.877Z" fill="white"/>
<path d="M186.068 39.0258H187.338C187.304 39.4809 187.18 39.8846 186.964 40.2369C186.748 40.586 186.448 40.8603 186.063 41.0598C185.678 41.2593 185.211 41.3591 184.663 41.3591C184.241 41.3591 183.86 41.2843 183.521 41.1347C183.185 40.9819 182.897 40.7652 182.657 40.4847C182.42 40.201 182.238 39.8612 182.112 39.4653C181.985 39.0663 181.922 38.619 181.922 38.1233V37.6043C181.922 37.1086 181.987 36.6613 182.116 36.2622C182.246 35.8632 182.431 35.5234 182.671 35.2429C182.914 34.9592 183.205 34.741 183.544 34.5882C183.886 34.4355 184.268 34.3591 184.69 34.3591C185.239 34.3591 185.702 34.462 186.081 34.6677C186.46 34.8703 186.755 35.1493 186.964 35.5047C187.174 35.8601 187.3 36.2685 187.343 36.7298H186.072C186.047 36.443 185.986 36.1999 185.887 36.0004C185.792 35.8009 185.647 35.6497 185.453 35.5468C185.262 35.4408 185.008 35.3878 184.69 35.3878C184.444 35.3878 184.227 35.4346 184.039 35.5281C183.854 35.6216 183.7 35.7619 183.577 35.9489C183.453 36.1329 183.361 36.3636 183.299 36.641C183.238 36.9153 183.207 37.2333 183.207 37.5949V38.1233C183.207 38.4693 183.235 38.7795 183.29 39.0538C183.346 39.3281 183.432 39.5604 183.549 39.7506C183.666 39.9407 183.817 40.0857 184.002 40.1854C184.187 40.2852 184.407 40.3351 184.663 40.3351C184.974 40.3351 185.226 40.2852 185.421 40.1854C185.618 40.0857 185.767 39.9391 185.869 39.7459C185.974 39.5526 186.04 39.3126 186.068 39.0258Z" fill="white"/>
<path d="M195.725 39.498C195.725 39.3671 195.705 39.2502 195.664 39.1473C195.627 39.0414 195.558 38.9463 195.456 38.8621C195.358 38.7748 195.218 38.6907 195.036 38.6096C194.857 38.5254 194.626 38.4381 194.343 38.3477C194.029 38.248 193.736 38.1358 193.465 38.0111C193.194 37.8864 192.955 37.7414 192.748 37.5762C192.545 37.411 192.386 37.2208 192.272 37.0057C192.158 36.7875 192.101 36.535 192.101 36.2482C192.101 35.9677 192.16 35.712 192.277 35.4813C192.397 35.2507 192.567 35.0527 192.785 34.8875C193.004 34.7192 193.261 34.5898 193.557 34.4994C193.856 34.409 194.186 34.3638 194.546 34.3638C195.045 34.3638 195.477 34.4557 195.84 34.6397C196.207 34.8236 196.49 35.073 196.69 35.3878C196.891 35.7027 196.991 36.0565 196.991 36.4493H195.725C195.725 36.2373 195.68 36.0503 195.591 35.8882C195.504 35.7261 195.372 35.5982 195.193 35.5047C195.017 35.4112 194.796 35.3644 194.528 35.3644C194.269 35.3644 194.053 35.4034 193.881 35.4813C193.711 35.5593 193.583 35.6653 193.497 35.7993C193.414 35.9334 193.372 36.083 193.372 36.2482C193.372 36.3729 193.402 36.4851 193.46 36.5849C193.519 36.6815 193.606 36.7735 193.724 36.8608C193.841 36.9449 193.985 37.0244 194.158 37.0992C194.334 37.1709 194.537 37.2426 194.768 37.3143C195.138 37.4266 195.461 37.5513 195.738 37.6884C196.019 37.8256 196.251 37.9815 196.436 38.156C196.624 38.3306 196.764 38.527 196.857 38.7452C196.952 38.9634 197 39.2112 197 39.4887C197 39.7817 196.943 40.0436 196.829 40.2743C196.715 40.5049 196.552 40.7013 196.339 40.8634C196.127 41.0255 195.871 41.1487 195.572 41.2328C195.276 41.317 194.945 41.3591 194.578 41.3591C194.252 41.3591 193.928 41.3155 193.608 41.2282C193.291 41.1378 193.003 41.0037 192.744 40.826C192.485 40.6452 192.279 40.4177 192.125 40.1433C191.97 39.8659 191.893 39.5417 191.893 39.1707H193.169C193.169 39.3858 193.203 39.5697 193.271 39.7225C193.341 39.8721 193.44 39.9953 193.566 40.0919C193.696 40.1854 193.847 40.254 194.019 40.2976C194.192 40.3413 194.378 40.3631 194.578 40.3631C194.837 40.3631 195.05 40.3273 195.216 40.2556C195.386 40.1807 195.512 40.0779 195.595 39.9469C195.681 39.816 195.725 39.6664 195.725 39.498Z" fill="white"/>
<defs>
<clipPath id="clip0_1_574">
<rect width="73" height="43" fill="white" transform="translate(0 0.5)"/>
</clipPath>
</defs>
</svg>
